<?xml version="1.0" encoding="UTF-8"?>
<svg id="farbig" xmlns="http://www.w3.org/2000/svg" version="1.1" viewBox="0 0 119.06 150.24">
  <defs>
    <style>
      .cls-1 {
        fill: #fff;
        stroke-width: 0px;
      }
    </style>
  </defs>
  <polygon class="cls-1" points="59.53 14.23 13.29 35.57 13.29 49.8 41.74 64.03 41.74 78.25 55.97 85.37 55.97 56.91 27.52 42.69 59.53 28.46 91.54 42.69 91.54 56.91 105.77 64.03 105.77 35.57 59.53 14.23"/>
  <polygon class="cls-1" points="77.31 42.69 63.08 35.57 63.08 64.03 91.54 78.25 59.53 92.48 27.52 78.25 27.52 64.03 13.29 56.91 13.29 85.37 59.53 106.71 105.77 85.37 105.77 71.14 77.31 56.91 77.31 42.69"/>
  <g>
    <path class="cls-1" d="M13.83,131.63l2.43-.49c.67,1.68,2.21,2.61,4.27,2.61,2.23,0,3.51-.89,3.51-2.44,0-3.82-9.52-1.16-9.52-7.39,0-2.7,2.28-4.56,5.61-4.56s5.5,1.45,6.32,4.15l-2.37.47c-.69-1.54-1.94-2.32-3.89-2.32s-3.17.85-3.17,2.26c0,4.02,9.56,1.07,9.56,7.39,0,2.84-2.37,4.69-6.03,4.69-3.37,0-5.9-1.61-6.72-4.38Z"/>
    <path class="cls-1" d="M26.97,119.63h2.79l4,12.49,3.69-12.49h2.19l3.71,12.49,4.02-12.49h2.79l-5.47,16.15h-2.46l-3.69-12.44-3.66,12.44h-2.46l-5.45-16.15Z"/>
    <path class="cls-1" d="M60,132.61h-8.09l-1.25,3.17h-2.75l6.75-16.17h2.59l6.77,16.17h-2.75l-1.27-3.17ZM59.18,130.53l-3.22-8.06-3.22,8.06h6.43Z"/>
    <path class="cls-1" d="M66.07,119.61h4.38c5.29,0,7.6,1.45,7.6,5.7s-2.3,5.7-7.57,5.7h-1.81v4.78h-2.59v-16.17ZM70.83,128.63c3.06,0,4.58-.71,4.58-3.37s-1.52-3.35-4.58-3.35h-2.17v6.72h2.17Z"/>
    <path class="cls-1" d="M79.81,127.87h7.04v2.23h-7.04v-2.23Z"/>
    <path class="cls-1" d="M89.44,119.61h2.59v16.17h-2.59v-16.17Z"/>
    <path class="cls-1" d="M98.8,121.95h-4.38v-2.35h11.33v2.35h-4.36v13.83h-2.59v-13.83Z"/>
  </g>
</svg>